<?xml version="1.0" encoding="utf-8" standalone="no"?>
<!DOCTYPE svg PUBLIC "-//W3C//DTD SVG 1.1//EN"
  "http://www.w3.org/Graphics/SVG/1.1/DTD/svg11.dtd">
<svg xmlns:xlink="http://www.w3.org/1999/xlink" width="140.4pt" height="140.4pt" viewBox="0 0 140.4 140.4" xmlns="http://www.w3.org/2000/svg" version="1.1">
 <metadata>
  <rdf:RDF xmlns:dc="http://purl.org/dc/elements/1.1/" xmlns:cc="http://creativecommons.org/ns#" xmlns:rdf="http://www.w3.org/1999/02/22-rdf-syntax-ns#">
   <cc:Work>
    <dc:type rdf:resource="http://purl.org/dc/dcmitype/StillImage"/>
    <dc:date>2026-08-04T02:33:44.861913</dc:date>
    <dc:format>image/svg+xml</dc:format>
    <dc:creator>
     <cc:Agent>
      <dc:title>Matplotlib v3.11.1, https://matplotlib.org/</dc:title>
     </cc:Agent>
    </dc:creator>
   </cc:Work>
  </rdf:RDF>
 </metadata>
 <defs>
  <style type="text/css">*{stroke-linejoin: round; stroke-linecap: butt}</style>
 </defs>
 <g id="figure_1">
  <g id="patch_1">
   <path d="M 0 140.4 
L 140.4 140.4 
L 140.4 0 
L 0 0 
z
" style="fill: #ffffff"/>
  </g>
  <g id="axes_1">
   <g id="patch_2">
    <path d="M 44.174209 111.795389 
L 133.778782 111.795389 
L 133.778782 3.00024 
L 44.174209 3.00024 
z
" style="fill: #ffffff"/>
   </g>
   <g id="matplotlib.axis_1">
    <g id="xtick_1">
     <g id="line2d_1">
      <path d="M 44.174209 111.795389 
L 44.174209 3.00024 
" clip-path="url(#pa700ee8c46)" style="fill: none; stroke-dasharray: 0.8,1.32; stroke-dashoffset: 0; stroke: #b0b0b0; stroke-opacity: 0.35; stroke-width: 0.8"/>
     </g>
     <g id="line2d_2">
      <defs>
       <path id="m6d47e1bbee" d="M 0 0 
L 0 2.5 
" style="stroke: #000000; stroke-width: 0.8"/>
      </defs>
      <g>
       <use xlink:href="#m6d47e1bbee" x="44.174209" y="111.795389" style="stroke: #000000; stroke-width: 0.8"/>
      </g>
     </g>
     <g id="text_1">
      <text style="font-size: 9.3px; font-family: 'Times New Roman', 'Nimbus Roman', 'Liberation Serif', 'DejaVu Serif', serif; text-anchor: middle" x="44.174209" y="122.743631" transform="rotate(-0 44.174209 122.743631)">0</text>
     </g>
    </g>
    <g id="xtick_2">
     <g id="line2d_3">
      <path d="M 92.206679 111.795389 
L 92.206679 3.00024 
" clip-path="url(#pa700ee8c46)" style="fill: none; stroke-dasharray: 0.8,1.32; stroke-dashoffset: 0; stroke: #b0b0b0; stroke-opacity: 0.35; stroke-width: 0.8"/>
     </g>
     <g id="line2d_4">
      <g>
       <use xlink:href="#m6d47e1bbee" x="92.206679" y="111.795389" style="stroke: #000000; stroke-width: 0.8"/>
      </g>
     </g>
     <g id="text_2">
      <text style="font-size: 9.3px; font-family: 'Times New Roman', 'Nimbus Roman', 'Liberation Serif', 'DejaVu Serif', serif; text-anchor: middle" x="92.206679" y="122.743631" transform="rotate(-0 92.206679 122.743631)">2</text>
     </g>
    </g>
    <g id="text_3">
     <!-- Amplification ($\times$) -->
     <g transform="translate(55.635996 135.35376)">
      <text>
       <tspan x="0" y="-0.453125" style="font-size: 9.3px; font-family: 'Liberation Serif'">A</tspan>
       <tspan x="6.713913" y="-0.453125" style="font-size: 9.3px; font-family: 'Liberation Serif'">m</tspan>
       <tspan x="13.945328" y="-0.453125" style="font-size: 9.3px; font-family: 'Liberation Serif'">p</tspan>
       <tspan x="18.593765" y="-0.453125" style="font-size: 9.3px; font-family: 'Liberation Serif'">l</tspan>
       <tspan x="21.176743" y="-0.453125" style="font-size: 9.3px; font-family: 'Liberation Serif'">i</tspan>
       <tspan x="23.75972" y="-0.453125" style="font-size: 9.3px; font-family: 'Liberation Serif'">f</tspan>
       <tspan x="26.855652" y="-0.453125" style="font-size: 9.3px; font-family: 'Liberation Serif'">i</tspan>
       <tspan x="29.438629" y="-0.453125" style="font-size: 9.3px; font-family: 'Liberation Serif'">c</tspan>
       <tspan x="33.565033" y="-0.453125" style="font-size: 9.3px; font-family: 'Liberation Serif'">a</tspan>
       <tspan x="37.691437" y="-0.453125" style="font-size: 9.3px; font-family: 'Liberation Serif'">t</tspan>
       <tspan x="40.274414" y="-0.453125" style="font-size: 9.3px; font-family: 'Liberation Serif'">i</tspan>
       <tspan x="42.857391" y="-0.453125" style="font-size: 9.3px; font-family: 'Liberation Serif'">o</tspan>
       <tspan x="47.505829" y="-0.453125" style="font-size: 9.3px; font-family: 'Liberation Serif'">n</tspan>
       <tspan x="52.154266" y="-0.453125" style="font-size: 9.3px; font-family: 'Liberation Serif'"> </tspan>
       <tspan x="54.478485" y="-0.453125" style="font-size: 9.3px; font-family: 'Liberation Serif'">(</tspan>
       <tspan x="63.524429" y="-0.453125" style="font-size: 9.3px; font-family: 'Liberation Serif'">)</tspan>
       <tspan x="57.574417" y="-0.453125" style="font-size: 9.3px; font-family: 'STIXGeneral'">×</tspan>
      </text>
     </g>
    </g>
   </g>
   <g id="matplotlib.axis_2">
    <g id="ytick_1">
     <g id="line2d_5">
      <defs>
       <path id="m28e7b8b4f5" d="M 0 0 
L -2.5 0 
" style="stroke: #000000; stroke-width: 0.8"/>
      </defs>
      <g>
       <use xlink:href="#m28e7b8b4f5" x="44.174209" y="22.074714" style="stroke: #000000; stroke-width: 0.8"/>
      </g>
     </g>
     <g id="text_4">
      <text style="font-size: 9.3px; font-family: 'Times New Roman', 'Nimbus Roman', 'Liberation Serif', 'DejaVu Serif', serif; text-anchor: end" x="39.674209" y="25.301378" transform="rotate(-0 39.674209 25.301378)">aligned</text>
     </g>
    </g>
    <g id="ytick_2">
     <g id="line2d_6">
      <g>
       <use xlink:href="#m28e7b8b4f5" x="44.174209" y="57.397814" style="stroke: #000000; stroke-width: 0.8"/>
      </g>
     </g>
     <g id="text_5">
      <text style="font-size: 9.3px; font-family: 'Times New Roman', 'Nimbus Roman', 'Liberation Serif', 'DejaVu Serif', serif" transform="translate(12.545818 56.043184)">16 KiB</text>
      <text style="font-size: 9.3px; font-family: 'Times New Roman', 'Nimbus Roman', 'Liberation Serif', 'DejaVu Serif', serif" transform="translate(3.00024 65.897733)">unaligned</text>
     </g>
    </g>
    <g id="ytick_3">
     <g id="line2d_7">
      <g>
       <use xlink:href="#m28e7b8b4f5" x="44.174209" y="92.720915" style="stroke: #000000; stroke-width: 0.8"/>
      </g>
     </g>
     <g id="text_6">
      <text style="font-size: 9.3px; font-family: 'Times New Roman', 'Nimbus Roman', 'Liberation Serif', 'DejaVu Serif', serif" transform="translate(17.195818 91.366284)">4 KiB</text>
      <text style="font-size: 9.3px; font-family: 'Times New Roman', 'Nimbus Roman', 'Liberation Serif', 'DejaVu Serif', serif" transform="translate(3.00024 101.220833)">unaligned</text>
     </g>
    </g>
   </g>
   <g id="patch_3">
    <path d="M 44.174209 7.945474 
L 68.190444 7.945474 
L 68.190444 36.203954 
L 44.174209 36.203954 
z
" clip-path="url(#pa700ee8c46)" style="fill: #0072b2"/>
   </g>
   <g id="patch_4">
    <path d="M 44.174209 43.268574 
L 74.194503 43.268574 
L 74.194503 71.527055 
L 44.174209 71.527055 
z
" clip-path="url(#pa700ee8c46)" style="fill: #0072b2"/>
   </g>
   <g id="patch_5">
    <path d="M 44.174209 78.591675 
L 92.206679 78.591675 
L 92.206679 106.850155 
L 44.174209 106.850155 
z
" clip-path="url(#pa700ee8c46)" style="fill: #0072b2"/>
   </g>
   <g id="patch_6">
    <path d="M 68.190444 7.945474 
L 68.190444 7.945474 
L 68.190444 36.203954 
L 68.190444 36.203954 
z
" clip-path="url(#pa700ee8c46)" style="fill: url(#h2a99413c2f)"/>
   </g>
   <g id="patch_7">
    <path d="M 74.194503 43.268574 
L 84.281322 43.268574 
L 84.281322 71.527055 
L 74.194503 71.527055 
z
" clip-path="url(#pa700ee8c46)" style="fill: url(#h2a99413c2f)"/>
   </g>
   <g id="patch_8">
    <path d="M 92.206679 78.591675 
L 113.100804 78.591675 
L 113.100804 106.850155 
L 92.206679 106.850155 
z
" clip-path="url(#pa700ee8c46)" style="fill: url(#h2a99413c2f)"/>
   </g>
   <g id="line2d_8">
    <path d="M 68.190444 111.795389 
L 68.190444 3.00024 
" clip-path="url(#pa700ee8c46)" style="fill: none; stroke-dasharray: 2.96,1.28; stroke-dashoffset: 0; stroke: #000000; stroke-opacity: 0.5; stroke-width: 0.8"/>
   </g>
   <g id="patch_9">
    <path d="M 44.174209 111.795389 
L 44.174209 3.00024 
" style="fill: none; stroke: #000000; stroke-width: 0.8; stroke-linejoin: miter; stroke-linecap: square"/>
   </g>
   <g id="patch_10">
    <path d="M 44.174209 111.795389 
L 133.778782 111.795389 
" style="fill: none; stroke: #000000; stroke-width: 0.8; stroke-linejoin: miter; stroke-linecap: square"/>
   </g>
   <g id="text_7">
    <!-- 1.00$\times$ -->
    <g transform="translate(70.258242 24.295271)">
     <text>
      <tspan x="0" y="-0.8125" style="font-size: 9.3px; font-family: 'Liberation Serif'">1</tspan>
      <tspan x="4.648438" y="-0.8125" style="font-size: 9.3px; font-family: 'Liberation Serif'">.</tspan>
      <tspan x="6.972656" y="-0.8125" style="font-size: 9.3px; font-family: 'Liberation Serif'">0</tspan>
      <tspan x="11.621094" y="-0.8125" style="font-size: 9.3px; font-family: 'Liberation Serif'">0</tspan>
      <tspan x="16.269531" y="-0.8125" style="font-size: 9.3px; font-family: 'STIXGeneral'">×</tspan>
     </text>
    </g>
   </g>
   <g id="text_8">
    <!-- 1.67$\times$ -->
    <g transform="translate(86.349119 59.618371)">
     <text>
      <tspan x="0" y="-0.84375" style="font-size: 9.3px; font-family: 'Liberation Serif'">1</tspan>
      <tspan x="4.648438" y="-0.84375" style="font-size: 9.3px; font-family: 'Liberation Serif'">.</tspan>
      <tspan x="6.972656" y="-0.84375" style="font-size: 9.3px; font-family: 'Liberation Serif'">6</tspan>
      <tspan x="11.621094" y="-0.84375" style="font-size: 9.3px; font-family: 'Liberation Serif'">7</tspan>
      <tspan x="16.269531" y="-0.84375" style="font-size: 9.3px; font-family: 'STIXGeneral'">×</tspan>
     </text>
    </g>
   </g>
   <g id="text_9">
    <!-- 2.87$\times$ -->
    <g transform="translate(115.168602 94.941471)">
     <text>
      <tspan x="0" y="-0.8125" style="font-size: 9.3px; font-family: 'Liberation Serif'">2</tspan>
      <tspan x="4.648438" y="-0.8125" style="font-size: 9.3px; font-family: 'Liberation Serif'">.</tspan>
      <tspan x="6.972656" y="-0.8125" style="font-size: 9.3px; font-family: 'Liberation Serif'">8</tspan>
      <tspan x="11.621094" y="-0.8125" style="font-size: 9.3px; font-family: 'Liberation Serif'">7</tspan>
      <tspan x="16.269531" y="-0.8125" style="font-size: 9.3px; font-family: 'STIXGeneral'">×</tspan>
     </text>
    </g>
   </g>
  </g>
 </g>
 <defs>
  <clipPath id="pa700ee8c46">
   <rect x="44.174209" y="3.00024" width="89.604574" height="108.795149"/>
  </clipPath>
 </defs>
 <defs>
  <pattern id="h2a99413c2f" patternUnits="userSpaceOnUse" x="0" y="0" width="72" height="72">
   <rect x="0" y="0" width="73" height="73" fill="#d55e00"/>
   <path d="M -36 36 
L 36 -36 
M -32 40 
L 40 -32 
M -28 44 
L 44 -28 
M -24 48 
L 48 -24 
M -20 52 
L 52 -20 
M -16 56 
L 56 -16 
M -12 60 
L 60 -12 
M -8 64 
L 64 -8 
M -4 68 
L 68 -4 
M 0 72 
L 72 0 
M 4 76 
L 76 4 
M 8 80 
L 80 8 
M 12 84 
L 84 12 
M 16 88 
L 88 16 
M 20 92 
L 92 20 
M 24 96 
L 96 24 
M 28 100 
L 100 28 
M 32 104 
L 104 32 
M 36 108 
L 108 36 
" style="fill: #ffffff; stroke: #ffffff; stroke-width: 1.0; stroke-linecap: butt; stroke-linejoin: miter"/>
  </pattern>
 </defs>
</svg>
